<?xml version="1.0" standalone="no"?>
<!DOCTYPE svg PUBLIC "-//W3C//DTD SVG 20010904//EN"
 "http://www.w3.org/TR/2001/REC-SVG-20010904/DTD/svg10.dtd">
<svg version="1.0" xmlns="http://www.w3.org/2000/svg"
 width="196.000000pt" height="196.000000pt" viewBox="0 0 196.000000 196.000000"
 preserveAspectRatio="xMidYMid meet">

<g transform="translate(0.000000,196.000000) scale(0.100000,-0.100000)"
fill="#000000" stroke="none">
<path d="M270 1794 c-221 -59 -331 -304 -230 -510 36 -74 101 -136 178 -172
46 -22 72 -27 137 -27 44 0 92 3 107 8 l27 7 -34 -67 c-19 -38 -41 -95 -50
-128 -19 -76 -19 -224 0 -300 56 -219 232 -389 452 -439 201 -45 395 10 547
155 122 115 186 266 186 435 0 111 -27 204 -97 335 -2 4 18 2 44 -3 105 -20
255 33 326 115 97 112 120 283 56 410 -32 61 -102 130 -166 163 -53 26 -67 29
-158 29 -89 0 -106 -3 -157 -28 -175 -86 -253 -286 -182 -470 4 -12 -6 -11
-53 8 -134 54 -283 54 -429 1 -38 -14 -69 -24 -71 -23 -1 2 5 25 13 52 22 71
14 176 -18 247 -77 167 -251 249 -428 202z m616 -1252 c28 -42 39 -117 24
-173 -17 -66 -36 -89 -70 -89 -78 0 -108 193 -43 271 32 38 60 35 89 -9z m275
28 c53 -29 72 -166 34 -245 -16 -33 -26 -41 -52 -43 -28 -3 -36 2 -52 30 -42
68 -39 185 5 238 28 33 36 35 65 20z"/>
</g>
</svg>
